<mxfile host="app.diagrams.net" modified="2024-05-14T11:26:32.673Z" agent="Mozilla/5.0 (Macintosh; Intel Mac OS X 10.15; rv:126.0) Gecko/20100101 Firefox/126.0" version="24.2.3" etag="gBghMa5HtzJR_hbQ2q6n" type="github">
  <diagram name="Page-1" id="3_oCX2yPJg3bPwpNIAG-">
    <mxGraphModel>
      <root>
        <mxCell id="0" />
        <mxCell id="1" parent="0" />
      </root>
    </mxGraphModel>
  </diagram>
</mxfile>
